<svg id="Layer_1" data-name="Layer 1" xmlns="http://www.w3.org/2000/svg" viewBox="0 0 50 29.04"><defs><style>.cls-1{font-size:13.32px;letter-spacing:-0.01em;}.cls-1,.cls-3{fill:#fff;}.cls-1,.cls-10,.cls-11,.cls-12,.cls-13,.cls-14,.cls-15,.cls-16,.cls-17,.cls-18,.cls-19,.cls-20,.cls-3,.cls-4,.cls-5,.cls-6,.cls-7,.cls-8,.cls-9{font-family:Montserrat-SemiBold, Montserrat;font-weight:600;}.cls-2{letter-spacing:0em;}.cls-3{font-size:17.08px;}.cls-4{font-size:14.47px;}.cls-10,.cls-11,.cls-12,.cls-13,.cls-14,.cls-15,.cls-16,.cls-17,.cls-18,.cls-19,.cls-20,.cls-4,.cls-5,.cls-6,.cls-7,.cls-8,.cls-9{fill:#48bb87;}.cls-5{font-size:11.67px;}.cls-6{font-size:11.19px;}.cls-7{font-size:15.27px;}.cls-8{font-size:13.88px;}.cls-9{font-size:12.16px;}.cls-10{font-size:11.18px;}.cls-11{font-size:13.87px;}.cls-12{font-size:13.25px;}.cls-13{font-size:8.16px;}.cls-14{font-size:10.85px;}.cls-15{font-size:10.85px;}.cls-16{font-size:4.39px;}.cls-17{font-size:7.66px;}.cls-18{font-size:9.08px;}.cls-19{font-size:4.53px;}.cls-20{font-size:8.75px;}</style></defs><text class="cls-1" transform="translate(4.34 11.32)">s<tspan class="cls-2" x="6.73" y="0">wipo</tspan></text><text class="cls-3" transform="translate(27.17 23.1) scale(0.78 1)">l</text><text class="cls-4" transform="translate(21.72 22.34) scale(0.92 1)">l</text><text class="cls-5" transform="translate(24.43 21.52) scale(1.14 1)">l</text><text class="cls-6" transform="matrix(1.19, 0, 0, 1, 29.87, 21.41)">l</text><text class="cls-7" transform="translate(35.29 22.57) scale(0.87 1)">l</text><text class="cls-8" transform="translate(32.58 22.16) scale(0.96 1)">l</text><text class="cls-9" transform="translate(13.57 21.66) scale(1.1 1)">l</text><text class="cls-10" transform="translate(8.14 21.38) scale(1.19 1)">l</text><text class="cls-11" transform="translate(10.86 22.16) scale(0.96 1)">l</text><text class="cls-12" transform="translate(16.29 21.98) scale(1.01 1)">l</text><text class="cls-13" transform="translate(5.43 20.49) scale(1.63 1)">l</text><text class="cls-14" transform="translate(19 21.28) scale(1.23 1)">l</text><text class="cls-15" transform="translate(40.72 21.28) scale(1.23 1)">l</text><text class="cls-16" transform="translate(46.15 19.39) scale(3.03 1)">l</text><text class="cls-17" transform="translate(43.44 20.35) scale(1.74 1)">l</text><text class="cls-18" transform="translate(38.05 20.77) scale(1.47 1)">l</text><text class="cls-19" transform="translate(0 19.43) scale(2.94 1)">l</text><text class="cls-20" transform="translate(2.71 20.67) scale(1.52 1)">l</text></svg>