<svg id="Layer_1" data-name="Layer 1" xmlns="http://www.w3.org/2000/svg" viewBox="0 0 300 214.13"><defs><style>.cls-1{fill:#48bb87;}.cls-2{font-size:98.15px;fill:#fff;font-family:Montserrat-SemiBold, Montserrat;font-weight:600;}.cls-3{letter-spacing:-0.01em;}</style></defs><rect class="cls-1" x="146.31" y="96.75" width="7.28" height="104.59" rx="0.44"/><rect class="cls-1" x="160.16" y="115.49" width="7.28" height="67.1" rx="0.44"/><rect class="cls-1" x="173.19" y="110.74" width="7.28" height="76.6" rx="0.44"/><rect class="cls-1" x="186.57" y="103.27" width="7.28" height="91.54" rx="0.44"/><rect class="cls-1" y="136.1" width="7.28" height="25.88" rx="0.44"/><rect class="cls-1" x="13.15" y="123.12" width="7.28" height="51.83" rx="0.44"/><rect class="cls-1" x="27" y="129.44" width="7.28" height="39.21" rx="0.44"/><rect class="cls-1" x="40.26" y="112.67" width="7.28" height="72.75" rx="0.44"/><rect class="cls-1" x="53.17" y="96.75" width="7.28" height="104.59" rx="0.44"/><rect class="cls-1" x="67.02" y="113.12" width="7.28" height="71.84" rx="0.44"/><rect class="cls-1" x="80.05" y="98.15" width="7.28" height="101.78" rx="0.44"/><rect class="cls-1" x="93.44" y="83.96" width="7.28" height="130.17" rx="0.44"/><rect class="cls-1" x="106.58" y="94.97" width="7.28" height="108.14" rx="0.44"/><rect class="cls-1" x="120.32" y="114.48" width="7.28" height="69.12" rx="0.44"/><rect class="cls-1" x="133.7" y="98.75" width="7.28" height="100.57" rx="0.44"/><rect class="cls-1" x="199.72" y="97.36" width="7.28" height="103.37" rx="0.44"/><rect class="cls-1" x="213.45" y="121.6" width="7.28" height="54.88" rx="0.44"/><rect class="cls-1" x="226.83" y="107.14" width="7.28" height="83.8" rx="0.44"/><rect class="cls-1" x="240.14" y="123.2" width="7.28" height="51.67" rx="0.44"/><rect class="cls-1" x="253.28" y="128.52" width="7.28" height="41.04" rx="0.44"/><rect class="cls-1" x="266.43" y="120.51" width="7.28" height="57.07" rx="0.44"/><rect class="cls-1" x="279.89" y="135.92" width="7.28" height="26.25" rx="0.44"/><rect class="cls-1" x="292.72" y="142.24" width="7.28" height="13.6" rx="0.44"/><text class="cls-2" transform="translate(0.62 83.43)"><tspan class="cls-3">s</tspan><tspan x="49.57" y="0">wipo</tspan></text></svg>