<svg id="Layer_1" data-name="Layer 1" xmlns="http://www.w3.org/2000/svg" viewBox="0 0 300 165.8"><defs><style>.cls-1{font-size:79.93px;}.cls-1,.cls-3{fill:#fff;}.cls-1,.cls-10,.cls-11,.cls-12,.cls-13,.cls-14,.cls-15,.cls-16,.cls-17,.cls-18,.cls-19,.cls-20,.cls-3,.cls-4,.cls-5,.cls-6,.cls-7,.cls-8,.cls-9{font-family:Montserrat-SemiBold, Montserrat;font-weight:600;}.cls-2{letter-spacing:-0.01em;}.cls-3{font-size:100.82px;}.cls-4{font-size:86.84px;}.cls-10,.cls-11,.cls-12,.cls-13,.cls-14,.cls-15,.cls-16,.cls-17,.cls-18,.cls-19,.cls-20,.cls-4,.cls-5,.cls-6,.cls-7,.cls-8,.cls-9{fill:#48bb87;}.cls-5{font-size:70.02px;}.cls-6{font-size:67.13px;}.cls-7{font-size:91.59px;}.cls-8{font-size:83.26px;}.cls-9{font-size:102.54px;}.cls-10{font-size:70.69px;}.cls-11{font-size:87.68px;}.cls-12{font-size:80.76px;}.cls-13{font-size:48.94px;}.cls-14{font-size:65.11px;}.cls-15{font-size:65.11px;}.cls-16{font-size:26.36px;}.cls-17{font-size:45.95px;}.cls-18{font-size:54.45px;}.cls-19{font-size:27.16px;}.cls-20{font-size:52.5px;}</style></defs><text class="cls-1" transform="translate(26.07 67.94)"><tspan class="cls-2">s</tspan><tspan x="40.37" y="0">wipo</tspan></text><text class="cls-3" transform="translate(162.88 138.12) scale(0.79 1)">l</text><text class="cls-4" transform="translate(130.31 134.04) scale(0.92 1)">l</text><text class="cls-5" transform="translate(146.59 129.12) scale(1.14 1)">l</text><text class="cls-6" transform="matrix(1.19, 0, 0, 1, 179.23, 128.34)">l</text><text class="cls-7" transform="translate(211.75 135.43) scale(0.87 1)">l</text><text class="cls-8" transform="translate(195.46 132.99) scale(0.96 1)">l</text><text class="cls-9" transform="translate(81.44 138.63) scale(0.78 1)">l</text><text class="cls-10" transform="translate(48.86 129.31) scale(1.13 1)">l</text><text class="cls-11" transform="translate(65.15 134.28) scale(0.91 1)">l</text><text class="cls-12" transform="translate(97.73 132.26) scale(0.99 1)">l</text><text class="cls-13" transform="translate(32.58 122.95) scale(1.63 1)">l</text><text class="cls-14" transform="translate(114.02 127.68) scale(1.23 1)">l</text><text class="cls-15" transform="translate(244.32 127.68) scale(1.23 1)">l</text><text class="cls-16" transform="translate(276.9 116.35) scale(3.03 1)">l</text><text class="cls-17" transform="translate(260.61 122.08) scale(1.74 1)">l</text><text class="cls-18" transform="translate(228.29 124.59) scale(1.47 1)">l</text><text class="cls-19" transform="translate(0 116.58) scale(2.94 1)">l</text><text class="cls-20" transform="translate(16.29 123.99) scale(1.52 1)">l</text></svg>