<svg id="Layer_1" data-name="Layer 1" xmlns="http://www.w3.org/2000/svg" viewBox="0 0 407.33 333.05"><defs><style>.cls-1{font-size:298.7px;fill:#fff;}.cls-1,.cls-10,.cls-11,.cls-12,.cls-13,.cls-14,.cls-15,.cls-16,.cls-17,.cls-18,.cls-2,.cls-3,.cls-4,.cls-5,.cls-6,.cls-7,.cls-8,.cls-9{font-family:Montserrat-SemiBold, Montserrat;font-weight:600;}.cls-2{font-size:253.16px;}.cls-10,.cls-11,.cls-12,.cls-13,.cls-14,.cls-15,.cls-16,.cls-17,.cls-18,.cls-2,.cls-3,.cls-4,.cls-5,.cls-6,.cls-7,.cls-8,.cls-9{fill:#48ba86;}.cls-3{font-size:204.12px;}.cls-4{font-size:195.7px;}.cls-5{font-size:267.02px;}.cls-6{font-size:242.71px;}.cls-7{font-size:212.78px;}.cls-8{font-size:195.57px;}.cls-9{font-size:242.56px;}.cls-10{font-size:231.68px;}.cls-11{font-size:142.69px;}.cls-12{font-size:189.83px;}.cls-13{font-size:189.82px;}.cls-14{font-size:76.84px;}.cls-15{font-size:133.97px;}.cls-16{font-size:158.75px;}.cls-17{font-size:79.18px;}.cls-18{font-size:153.05px;}</style></defs><text class="cls-1" transform="translate(221.36 253.89) scale(0.36 1)">l</text><text class="cls-2" transform="translate(176.93 240.57) scale(0.43 1)">l</text><text class="cls-3" transform="translate(199.04 226.22) scale(0.53 1)">l</text><text class="cls-4" transform="matrix(0.55, 0, 0, 1, 243.36, 224.49)">l</text><text class="cls-5" transform="translate(287.51 244.63) scale(0.41 1)">l</text><text class="cls-6" transform="translate(265.39 237.52) scale(0.45 1)">l</text><text class="cls-7" transform="translate(110.58 228.77) scale(0.51 1)">l</text><text class="cls-8" transform="translate(66.34 223.73) scale(0.55 1)">l</text><text class="cls-9" transform="translate(88.46 237.47) scale(0.45 1)">l</text><text class="cls-10" transform="translate(132.7 234.28) scale(0.47 1)">l</text><text class="cls-11" transform="translate(44.23 208.25) scale(0.76 1)">l</text><text class="cls-12" transform="translate(154.81 222.05) scale(0.57 1)">l</text><text class="cls-13" transform="translate(331.73 222.05) scale(0.57 1)">l</text><text class="cls-14" transform="translate(375.97 189) scale(1.41 1)">l</text><text class="cls-15" transform="translate(353.85 205.7) scale(0.81 1)">l</text><text class="cls-16" transform="translate(309.97 213.05) scale(0.68 1)">l</text><text class="cls-17" transform="translate(0 189.69) scale(1.37 1)">l</text><text class="cls-18" transform="translate(22.12 211.29) scale(0.71 1)">l</text></svg>