<svg id="Layer_1" data-name="Layer 1" xmlns="http://www.w3.org/2000/svg" viewBox="0 0 36 25.69"><defs><style>.cls-1{fill:#48bb87;}.cls-2{font-size:11.78px;fill:#fff;font-family:Montserrat-SemiBold, Montserrat;font-weight:600;}.cls-3{letter-spacing:-0.01em;}</style></defs><rect class="cls-1" x="17.56" y="11.61" width="0.87" height="12.55" rx="0.44"/><rect class="cls-1" x="19.22" y="13.86" width="0.87" height="8.05" rx="0.44"/><rect class="cls-1" x="20.78" y="13.29" width="0.87" height="9.19" rx="0.44"/><rect class="cls-1" x="22.39" y="12.39" width="0.87" height="10.99" rx="0.44"/><rect class="cls-1" y="16.33" width="0.87" height="3.11" rx="0.44"/><rect class="cls-1" x="1.58" y="14.77" width="0.87" height="6.22" rx="0.44"/><rect class="cls-1" x="3.24" y="15.53" width="0.87" height="4.71" rx="0.44"/><rect class="cls-1" x="4.83" y="13.52" width="0.87" height="8.73" rx="0.44"/><rect class="cls-1" x="6.38" y="11.61" width="0.87" height="12.55" rx="0.44"/><rect class="cls-1" x="8.04" y="13.57" width="0.87" height="8.62" rx="0.44"/><rect class="cls-1" x="9.61" y="11.78" width="0.87" height="12.21" rx="0.44"/><rect class="cls-1" x="11.21" y="10.07" width="0.87" height="15.62" rx="0.44"/><rect class="cls-1" x="12.79" y="11.4" width="0.87" height="12.98" rx="0.44"/><rect class="cls-1" x="14.44" y="13.74" width="0.87" height="8.29" rx="0.44"/><rect class="cls-1" x="16.04" y="11.85" width="0.87" height="12.07" rx="0.44"/><rect class="cls-1" x="23.97" y="11.68" width="0.87" height="12.4" rx="0.44"/><rect class="cls-1" x="25.61" y="14.59" width="0.87" height="6.59" rx="0.44"/><rect class="cls-1" x="27.22" y="12.86" width="0.87" height="10.06" rx="0.44"/><rect class="cls-1" x="28.82" y="14.78" width="0.87" height="6.2" rx="0.44"/><rect class="cls-1" x="30.39" y="15.42" width="0.87" height="4.93" rx="0.44"/><rect class="cls-1" x="31.97" y="14.46" width="0.87" height="6.85" rx="0.44"/><rect class="cls-1" x="33.59" y="16.31" width="0.87" height="3.15" rx="0.44"/><rect class="cls-1" x="35.13" y="17.07" width="0.87" height="1.63" rx="0.44"/><text class="cls-2" transform="translate(0.07 10.01)"><tspan class="cls-3">s</tspan><tspan x="5.95" y="0">wipo</tspan></text></svg>