<svg id="Layer_1" data-name="Layer 1" xmlns="http://www.w3.org/2000/svg" viewBox="0 0 32.69 37.58"><defs><style>.cls-1{fill:#48bb87;}.cls-2{font-size:8.43px;fill:#231f20;}.cls-2,.cls-3{font-family:Montserrat-SemiBold, Montserrat;font-weight:600;}.cls-3{font-size:6.35px;fill:#fff;}</style></defs><rect class="cls-1" x="5.04" y="13.96" width="0.89" height="3.16" rx="0.44"/><rect class="cls-1" x="6.65" y="12.37" width="0.89" height="6.34" rx="0.44"/><rect class="cls-1" x="8.35" y="13.14" width="0.89" height="4.79" rx="0.44"/><rect class="cls-1" x="9.97" y="11.09" width="0.89" height="8.89" rx="0.44"/><rect class="cls-1" x="11.55" y="9.14" width="0.89" height="12.79" rx="0.44"/><rect class="cls-1" x="13.24" y="11.15" width="0.89" height="8.78" rx="0.44"/><rect class="cls-1" x="14.83" y="9.32" width="0.89" height="12.44" rx="0.44"/><rect class="cls-1" x="16.47" y="7.58" width="0.89" height="15.91" rx="0.44"/><rect class="cls-1" x="18.08" y="8.93" width="0.89" height="13.22" rx="0.44"/><rect class="cls-1" x="19.75" y="11.31" width="0.89" height="8.45" rx="0.44"/><rect class="cls-1" x="21.39" y="9.39" width="0.89" height="12.3" rx="0.44"/><rect class="cls-1" x="23.02" y="11.81" width="0.89" height="7.45" rx="0.44"/><rect class="cls-1" x="24.62" y="12.64" width="0.89" height="5.79" rx="0.44"/><rect class="cls-1" x="26.23" y="11.81" width="0.89" height="7.45" rx="0.44"/><rect class="cls-1" x="27.88" y="13.66" width="0.89" height="3.75" rx="0.44"/><rect class="cls-1" x="29.45" y="14.71" width="0.89" height="1.66" rx="0.44"/><text class="cls-2" transform="matrix(0.67, -0.75, 0.75, 0.67, 5.72, 13.46)"> </text><text class="cls-2" transform="translate(7.25 11.74) rotate(-39.55)"> </text><text class="cls-3" transform="matrix(0.87, -0.49, 0.49, 0.87, 8.99, 10.25)">s</text><text class="cls-3" transform="translate(11.42 8.63) rotate(-13.17)">w</text><text class="cls-3" transform="translate(16.86 7.57) rotate(0.36)">i</text><text class="cls-3" transform="translate(18.49 7.44) rotate(11.21)">p</text><text class="cls-3" transform="matrix(0.9, 0.44, -0.44, 0.9, 22.47, 8.2)">o</text></svg>